<?xml version="1.0" encoding="UTF-8"?>
<!DOCTYPE svg PUBLIC "-//W3C//DTD SVG 1.1//EN" "http://www.w3.org/Graphics/SVG/1.1/DTD/svg11.dtd">
<!-- Creator: CorelDRAW X8 -->
<svg xmlns="http://www.w3.org/2000/svg" xml:space="preserve" width="25.6001mm" height="6.3383mm" version="1.1" style="shape-rendering:geometricPrecision; text-rendering:geometricPrecision; image-rendering:optimizeQuality; fill-rule:evenodd; clip-rule:evenodd"
viewBox="0 0 2560 634"
 xmlns:xlink="http://www.w3.org/1999/xlink">
 <defs>
  <style type="text/css">
   <![CDATA[
    .str0 {stroke:#4B515D;stroke-width:19.9999}
    .str1 {stroke:#4B515D;stroke-width:7.61997}
    .fil0 {fill:none}
    .fil4 {fill:#4285F4}
    .fil5 {fill:#CC0000}
    .fil3 {fill:#FEFEFE}
    .fil2 {fill:#4B515D;fill-rule:nonzero}
    .fil1 {fill:#4B515D;fill-rule:nonzero;fill-opacity:0.501961}
   ]]>
  </style>
 </defs>
 <g id="Слой_x0020_1">
  <metadata id="CorelCorpID_0Corel-Layer"/>
  <rect class="fil0 str0" x="10" y="10" width="2540" height="614" rx="111" ry="111"/>
  <path class="fil1" d="M373 179l-70 0 -49 85 -48 -85 -70 0c24,39 58,95 82,136l-87 133 71 0 53 -87 53 87 71 0c-26,-40 -60,-96 -86,-137l80 -132z"/>
  <path class="fil1" d="M1554 179l-71 0 -48 85 -48 -85 -70 0c24,39 58,95 82,136l-88 133 72 0 53 -87 52 87 71 0c-25,-40 -60,-96 -86,-137l81 -132z"/>
  <path class="fil1" d="M1840 179l-71 0 -48 85 -48 -85 -70 0c24,39 57,95 81,136l-87 133 71 0 53 -87 53 87 71 0c-25,-40 -60,-96 -86,-137l81 -132z"/>
  <line class="fil0 str0" x1="1978" y1="10" x2="1978" y2= "624" />
  <g id="_2286528170496">
   <path class="fil2" d="M2153 91c28,0 50,11 66,31 19,24 29,63 29,118 0,56 -10,95 -29,119 -16,20 -38,30 -66,30 -28,0 -51,-11 -68,-33 -18,-21 -26,-60 -26,-116 0,-55 9,-95 28,-119 16,-20 38,-30 66,-30zm0 47c-6,0 -12,2 -17,6 -6,4 -10,12 -13,23 -3,15 -5,39 -5,73 0,35 1,58 5,71 3,13 7,21 13,25 5,5 11,7 17,7 7,0 13,-2 18,-7 5,-4 9,-12 12,-23 4,-14 6,-38 6,-73 0,-34 -2,-57 -5,-70 -4,-13 -8,-22 -13,-26 -5,-4 -11,-6 -18,-6z"/>
   <path id="1" class="fil2" d="M2379 91c28,0 50,11 66,31 19,24 29,63 29,118 0,56 -10,95 -29,119 -16,20 -38,30 -66,30 -28,0 -51,-11 -68,-33 -18,-21 -26,-60 -26,-116 0,-55 9,-95 28,-119 16,-20 38,-30 66,-30zm0 47c-7,0 -12,2 -18,6 -5,4 -9,12 -12,23 -4,15 -5,39 -5,73 0,35 1,58 5,71 3,13 7,21 12,25 6,5 11,7 18,7 7,0 13,-2 18,-7 5,-4 9,-12 12,-23 4,-14 6,-38 6,-73 0,-34 -2,-57 -5,-70 -4,-13 -8,-22 -13,-26 -5,-4 -11,-6 -18,-6z"/>
   <path class="fil2" d="M2047 530l0 -85 38 0c7,0 13,1 17,3 4,1 7,4 9,8 3,3 4,8 4,12 0,6 -2,11 -6,16 -4,4 -10,6 -18,7 3,2 5,3 7,5 3,3 6,6 9,11l15 23 -14 0 -12 -18c-3,-5 -6,-9 -8,-11 -2,-3 -4,-5 -5,-6 -2,-1 -4,-2 -5,-2 -2,-1 -4,-1 -7,-1l-13 0 0 38 -11 0zm11 -47l24 0c6,0 10,-1 12,-2 3,-1 5,-3 7,-5 1,-2 2,-5 2,-8 0,-4 -1,-7 -4,-9 -3,-3 -8,-4 -14,-4l-27 0 0 28z"/>
   <path id="1" class="fil2" d="M2187 445l12 0 0 49c0,9 -1,15 -3,20 -2,5 -6,9 -11,12 -5,4 -11,5 -19,5 -8,0 -15,-1 -20,-4 -5,-3 -8,-7 -10,-12 -3,-5 -4,-12 -4,-21l0 -49 12 0 0 49c0,7 0,13 2,16 1,4 3,6 7,8 3,2 7,3 12,3 8,0 14,-2 17,-5 4,-4 5,-11 5,-22l0 -49z"/>
   <path id="2" class="fil2" d="M2214 503l10 -1c1,4 2,7 4,10 1,3 4,5 8,7 4,1 8,2 13,2 4,0 8,0 11,-2 4,-1 6,-3 8,-5 1,-2 2,-5 2,-7 0,-3 -1,-5 -2,-7 -2,-2 -4,-4 -8,-5 -2,-1 -7,-2 -15,-4 -8,-2 -13,-4 -16,-5 -4,-2 -7,-5 -9,-8 -2,-3 -3,-7 -3,-11 0,-4 1,-8 3,-12 3,-3 6,-6 11,-8 5,-2 10,-3 16,-3 6,0 11,1 16,3 5,2 9,5 11,9 3,4 4,8 4,13l-10 1c-1,-5 -3,-9 -6,-12 -4,-3 -9,-4 -15,-4 -7,0 -12,1 -15,4 -3,2 -4,5 -4,9 0,3 1,5 3,7 2,2 8,4 17,6 9,2 15,4 18,5 5,3 9,6 11,9 3,3 4,7 4,12 0,4 -2,9 -4,13 -3,4 -6,7 -11,9 -5,2 -10,3 -16,3 -8,0 -14,-1 -20,-3 -5,-2 -9,-6 -12,-10 -3,-5 -4,-10 -4,-15z"/>
   <rect class="fil3 str1" x="2310" y="434" width="195.257" height="36.1599"/>
   <rect class="fil4 str1" x="2310" y="470" width="195.257" height="36.1599"/>
   <rect class="fil5 str1" x="2310" y="506" width="195.257" height="36.1599"/>
  </g>
 </g>
</svg>
